<svg xmlns="http://www.w3.org/2000/svg" xmlns:xlink="http://www.w3.org/1999/xlink" width="840" height="191.97"><rect width="840" height="191.97" rx="0" ry="0" class="a"></rect><svg height="151.97" viewBox="0 0 80 15.197" width="800" x="20" xmlns="http://www.w3.org/2000/svg" xmlns:xlink="http://www.w3.org/1999/xlink" y="20"><style>.a{fill:rgb(40,45,53)}.b{font-family:'Fira Code',Monaco,Consolas,Menlo,'Bitstream Vera Sans Mono','Powerline Symbols',monospace}.c{fill:transparent}.d{fill:rgb(185,192,203);white-space:pre}.e{fill:rgb(102,194,205);white-space:pre}.f{fill:rgb(185,192,203);font-weight:bold;white-space:pre}</style><g font-family="&#x27;Fira Code&#x27;,Monaco,Consolas,Menlo,&#x27;Bitstream Vera Sans Mono&#x27;,&#x27;Powerline Symbols&#x27;,monospace" font-size="1.67" class="b"><defs><symbol id="a"><rect height="7" width="80" x="0" y="0" class="c"></rect></symbol></defs><rect height="15.197" width="80" class="a"></rect><svg x="0" y="0" width="80"><svg x="0"><use xlink:href="#a"></use><text font-size="1.67" x="0" y="1.67" class="d">&gt;</text><text font-size="1.67" x="0" y="3.8409999999999997" class="d">&gt;</text><text font-size="1.67" x="2.004" y="3.8409999999999997" class="d">test_plot(starwars_plot,</text><text font-size="1.67" x="27.054" y="3.8409999999999997" class="d">test</text><text font-size="1.67" x="32.064" y="3.8409999999999997" class="d">=</text><text font-size="1.67" x="34.068" y="3.8409999999999997" class="d">&quot;alt&quot;)</text><text font-size="1.67" x="0" y="8.183" class="e">──</text><text font-size="1.67" x="3.006" y="8.183" class="f">Alt</text><text font-size="1.67" x="7.013999999999999" y="8.183" class="f">text</text><text font-size="1.67" x="12.024" y="8.183" class="e">────────────────────────────────────────────────────────────────────</text><text font-size="1.67" x="0" y="10.354" class="e">ℹ</text><text font-size="1.67" x="2.004" y="10.354" class="d">Scatter</text><text font-size="1.67" x="10.02" y="10.354" class="d">plot</text><text font-size="1.67" x="15.029999999999998" y="10.354" class="d">of</text><text font-size="1.67" x="18.035999999999998" y="10.354" class="d">Star</text><text font-size="1.67" x="23.045999999999996" y="10.354" class="d">Wars</text><text font-size="1.67" x="28.055999999999997" y="10.354" class="d">characters,</text><text font-size="1.67" x="40.08" y="10.354" class="d">with</text><text font-size="1.67" x="45.089999999999996" y="10.354" class="d">height</text><text font-size="1.67" x="52.104" y="10.354" class="d">plotted</text><text font-size="1.67" x="60.11999999999999" y="10.354" class="d">on</text><text font-size="1.67" x="63.12599999999999" y="10.354" class="d">the</text><text font-size="1.67" x="67.134" y="10.354" class="d">x-axis</text><text font-size="1.67" x="74.148" y="10.354" class="d">and</text><text font-size="1.67" x="78.15599999999999" y="10.354" class="d">ma</text><text font-size="1.67" x="0" y="12.525" class="d">ss</text><text font-size="1.67" x="3.006" y="12.525" class="d">on</text><text font-size="1.67" x="6.012" y="12.525" class="d">the</text><text font-size="1.67" x="10.02" y="12.525" class="d">y-axis.</text><text font-size="1.67" x="18.035999999999998" y="12.525" class="d">The</text><text font-size="1.67" x="22.043999999999997" y="12.525" class="d">dots</text><text font-size="1.67" x="27.054" y="12.525" class="d">are</text><text font-size="1.67" x="31.061999999999998" y="12.525" class="d">coloured</text><text font-size="1.67" x="40.08" y="12.525" class="d">by</text><text font-size="1.67" x="43.086" y="12.525" class="d">gender.</text><text font-size="1.67" x="51.102" y="12.525" class="d">Generally-speaking,</text><text font-size="1.67" x="71.142" y="12.525" class="d">height</text><text font-size="1.67" x="78.15599999999999" y="12.525" class="d">an</text><text font-size="1.67" x="0" y="14.696" class="d">d</text><text font-size="1.67" x="2.004" y="14.696" class="d">mass</text><text font-size="1.67" x="7.013999999999999" y="14.696" class="d">are</text><text font-size="1.67" x="11.021999999999998" y="14.696" class="d">correlated.</text><text font-size="1.67" x="23.045999999999996" y="14.696" class="d">The</text><text font-size="1.67" x="27.054" y="14.696" class="d">heaviest</text><text font-size="1.67" x="36.071999999999996" y="14.696" class="d">character</text><text font-size="1.67" x="46.09199999999999" y="14.696" class="d">is</text><text font-size="1.67" x="49.098" y="14.696" class="d">Jabba</text><text font-size="1.67" x="55.10999999999999" y="14.696" class="d">Desilijic</text><text font-size="1.67" x="65.13" y="14.696" class="d">Tiure.</text></svg></svg></g></svg></svg>